<?xml version="1.0" standalone="no"?>
<!DOCTYPE svg PUBLIC "-//W3C//DTD SVG 20010904//EN"
 "http://www.w3.org/TR/2001/REC-SVG-20010904/DTD/svg10.dtd">
<svg version="1.0" xmlns="http://www.w3.org/2000/svg"
 width="512.000000pt" height="512.000000pt" viewBox="0 0 512.000000 512.000000"
 preserveAspectRatio="xMidYMid meet">
<metadata>
Created by potrace 1.16, written by Peter Selinger 2001-2019
</metadata>
<g transform="translate(0.000000,512.000000) scale(0.100000,-0.100000)"
fill="#000000" stroke="none">
<path d="M1004 4691 c-58 -14 -101 -49 -128 -103 l-26 -52 0 -988 0 -988 -144
0 -144 0 -48 -32 c-27 -19 -56 -50 -68 -73 -21 -40 -21 -49 -21 -965 0 -858 1
-927 17 -957 25 -45 83 -89 134 -102 63 -16 3908 -15 3972 1 67 17 126 79 142
149 8 40 10 348 8 1159 l-3 1105 -24 42 c-48 84 -99 103 -272 103 l-129 0 0
773 0 773 -26 52 c-19 39 -38 59 -72 80 l-47 27 -1545 2 c-850 0 -1559 -2
-1576 -6z m2836 -1066 l0 -635 -494 0 c-543 0 -533 1 -593 -62 -18 -18 -54
-82 -81 -142 -55 -123 -99 -184 -157 -218 l-40 -23 -597 -3 -598 -3 0 861 0
860 1280 0 1280 0 0 -635z"/>
<path d="M1700 3625 l0 -215 860 0 860 0 0 215 0 215 -860 0 -860 0 0 -215z"/>
</g>
</svg>
